<svg xmlns="http://www.w3.org/2000/svg" xmlns:xlink="http://www.w3.org/1999/xlink" width="172" height="243" xml:space="preserve"><defs><clipPath id="clip0"><rect x="1181" y="1908" width="172" height="243"></rect></clipPath></defs><g clip-path="url(#clip0)" transform="translate(-1181 -1908)"><path d="M241.663 90.776C231.79 85.4851 220.734 82.7904 209.534 82.945 203.938 82.9014 198.358 83.5486 192.92 84.8723 187.163 86.2628 181.796 88.7268 176.234 90.654 159.889 96.3626 141.714 91.2151 125.735 86.3604 117.318 83.7989 108.194 81.091 101.339 75.3092 101.102 75.0901 101.087 74.7196 101.306 74.4819 101.469 74.3046 101.725 74.2456 101.949 74.3334 117.916 81.6233 134.784 86.751 152.107 89.5806 155.672 90.1656 159.276 90.4838 162.889 90.5321 168.415 90.2391 173.84 88.9327 178.893 86.6776 188.92 82.8474 198.8 79.9688 209.656 80.4811 221.031 81.151 232.051 84.693 241.687 90.776L241.687 90.898Z" fill="#FFFFFF" transform="matrix(6.12323e-17 1 -1.00106 6.12971e-17 1353 1908.62)"></path><path d="M199.654 80.7982C200.529 80.7972 201.24 81.5064 201.241 82.382 201.242 82.8038 201.074 83.2083 200.776 83.5061 194.945 89.483 192.384 97.5092 189.651 105.999 187.212 113.318 184.772 121.124 179.893 127.394 173.087 136.127 162.816 140.763 152.79 145.227L148.252 147.252C139.055 151.521 126.394 158.571 122.954 170.769 122.739 171.547 121.967 172.034 121.173 171.891 120.365 171.767 119.784 171.049 119.831 170.232 120.076 160.054 121.718 149.958 124.71 140.226 127.848 130.2 134.445 121.615 143.324 116.001 148.389 113.331 153.775 111.322 159.352 110.024 165.988 108.17 172.257 106.414 177.405 102.462 181.329 99.1654 184.916 95.488 188.114 91.4835 191.113 87.4499 194.756 83.9387 198.897 81.091 199.123 80.9358 199.382 80.8355 199.654 80.7982ZM123.637 161.865C129.394 153.302 139.299 147.911 146.983 144.373 148.472 143.666 150.009 142.983 151.521 142.324 161.279 138.006 171.038 133.542 177.429 125.442 181.942 119.538 184.333 112.22 186.626 105.023 187.852 100.882 189.302 96.8098 190.969 92.8252L190.505 93.3863C187.174 97.5956 183.422 101.454 179.308 104.901 173.697 109.219 166.817 111.146 160.182 113 154.867 114.244 149.729 116.145 144.885 118.66 136.708 123.909 130.657 131.887 127.809 141.177 125.591 147.88 124.191 154.826 123.637 161.865Z" fill="#FFFFFF" transform="matrix(6.12323e-17 1 -1.00106 6.12971e-17 1353 1908.62)"></path><path d="M198.946 83.4085C195.234 87.1367 191.716 91.0532 188.407 95.1428 185.602 98.607 183.235 102.462 180.527 106.17 175.735 112.659 168.836 117.282 161.011 119.246 151.57 121.978 142.47 125.369 135.591 132.688 128.711 140.006 126.272 151.009 122.759 160.474 122.712 160.629 122.548 160.716 122.393 160.669 122.238 160.622 122.15 160.458 122.198 160.303 124.905 151.35 127.272 141.177 133.298 133.785 138.691 127.565 145.698 122.956 153.546 120.465 158.608 119.115 163.593 117.486 168.476 115.586 173.277 113.021 177.406 109.36 180.527 104.901 186.068 97.2887 192.203 90.1266 198.873 83.4817Z" fill="#FFFFFF" transform="matrix(6.12323e-17 1 -1.00106 6.12971e-17 1353 1908.62)"></path><path d="M197.897 84.4576C191.422 92.0404 185.862 100.36 181.332 109.243 177.6 117.221 172.892 123.881 164.792 127.857 160.255 130.077 155.302 131.297 150.74 133.444 146.093 135.665 141.807 138.577 138.03 142.08 134.318 145.611 131.138 149.663 128.589 154.107 126.15 158.083 122.954 162.499 123.051 167.329 123.051 167.695 122.49 167.72 122.417 167.329 122.046 164.051 122.916 160.752 124.857 158.083 127.12 153.959 129.74 150.04 132.688 146.374 138.954 138.931 147.125 133.332 156.327 130.175 161.614 128.595 166.573 126.075 170.964 122.734 174.94 119.232 178.125 114.925 180.308 110.097 185.079 100.846 190.961 92.2112 197.824 84.3844Z" fill="#FFFFFF" transform="matrix(6.12323e-17 1 -1.00106 6.12971e-17 1353 1908.62)"></path><path d="M191.945 92.7033C187.829 100.528 184.132 108.565 180.869 116.782 178.21 123.588 174.843 128.98 168.354 132.566 160.621 136.957 151.814 138.738 144.52 143.983 140.933 146.544 137.201 149.057 133.737 151.667 129.628 154.221 126.672 158.271 125.491 162.963 125.491 163.231 125.003 163.231 125.027 162.963 126.101 155.644 132.151 151.985 137.689 148.13 141.129 145.691 144.324 142.983 147.959 140.811 152.172 138.616 156.533 136.716 161.011 135.127 165.442 133.619 169.571 131.34 173.209 128.394 176.572 124.893 179.078 120.659 180.527 116.025 183.696 107.96 187.506 100.161 191.92 92.7033 191.92 92.7033 191.92 92.7033 191.92 92.7033Z" fill="#FFFFFF" transform="matrix(6.12323e-17 1 -1.00106 6.12971e-17 1353 1908.62)"></path><path d="M181.259 102.022C177.749 105.693 173.702 108.811 169.257 111.268 164.378 113.708 158.742 115.05 153.619 117.172 148.103 119.346 142.921 122.286 138.225 125.906 133.939 129.564 130.229 133.849 127.223 138.616 127.156 138.7 127.033 138.714 126.949 138.647 126.888 138.599 126.862 138.52 126.881 138.445 130.736 129.126 140.177 122.759 148.984 118.587 153.968 116.369 159.075 114.439 164.28 112.805 170.662 110.43 176.478 106.749 181.357 101.998 181.357 101.998 181.357 101.998 181.357 101.998Z" fill="#FFFFFF" transform="matrix(6.12323e-17 1 -1.00106 6.12971e-17 1353 1908.62)"></path><path d="M103.974 87.4338C104.925 87.4338 105.877 87.4338 106.828 87.4338 109.674 87.7615 112.494 88.283 115.269 88.9951L118.367 89.7026C134.493 93.1424 150.448 91.5811 167.988 89.1415L168.744 89.0195C168.889 88.9834 169.039 88.9834 169.183 89.0195L170.306 88.8488C171.202 88.7207 172.032 89.3433 172.16 90.2393 172.288 91.1354 171.665 91.9653 170.769 92.0934L168.5 92.4105 168.061 92.4105C162.197 93.2002 156.511 94.9906 151.253 97.7044 147.998 99.5055 144.876 101.535 141.909 103.779 140.08 105.096 138.25 106.414 136.371 107.633 119.89 118.165 99.7399 121.281 80.847 116.221 74.2563 114.268 67.822 111.821 61.5989 108.902 50.9624 104.218 40.9602 99.778 29.8846 99.9488 29.1452 100.002 28.4794 99.5026 28.3233 98.7778 28.1474 98.0749 28.4553 97.3401 29.0796 96.9725 38.6451 91.6755 50.0564 90.8548 60.2815 94.7281L62.0136 95.4112C63.7157 96.214 65.5224 96.7727 67.3806 97.0701 70.3059 97.0928 73.1961 96.4329 75.8215 95.1428L79.4565 93.7035C87.3362 90.654 95.46 87.4338 103.974 87.4338ZM138.469 95.1428C131.487 95.1904 124.52 94.4954 117.684 93.0692L114.659 92.2154C112.029 91.5357 109.356 91.0383 106.658 90.7272 97.8751 89.971 89.1659 93.4107 80.7494 96.7285L77.0901 98.1923C73.9836 99.6277 70.5806 100.305 67.1611 100.168 65.0011 99.8397 62.8987 99.2071 60.9158 98.2899L59.1349 97.5824C51.8709 94.8557 43.895 94.6837 36.5202 97.0945 45.693 98.3387 54.4022 102.169 62.8675 105.901 68.9439 108.791 75.2219 111.237 81.6521 113.22 99.6909 118.013 118.914 114.994 134.615 104.901 136.469 103.706 138.25 102.462 140.031 101.144 143.123 98.7992 146.384 96.6873 149.789 94.8257L150.545 94.4354C146.374 94.8257 142.446 95.1428 138.469 95.1428Z" fill="#FFFFFF" transform="matrix(6.12323e-17 1 -1.00106 6.12971e-17 1353 1908.62)"></path><path d="M161.401 91.7762C154.961 93.1912 147.837 93.8987 141.885 96.8017 136.835 99.2413 132.37 102.632 127.247 104.999 118.158 109.175 108.406 111.726 98.4362 112.537 88.9737 113.279 79.4535 112.455 70.2593 110.097 65.3968 108.876 60.6597 107.202 56.1099 105.096 50.8648 102.657 45.9613 99.778 40.1552 98.851 39.9844 98.851 40.0088 98.5582 40.1552 98.5826 44.6205 99.14 48.9317 100.574 52.8409 102.803 57.6968 105.25 62.7579 107.266 67.9661 108.829 78.1628 111.727 88.808 112.711 99.3633 111.732 109.623 110.783 119.621 107.955 128.858 103.389 133.981 100.949 138.616 97.1433 144.032 95.2648 149.712 93.6115 155.523 92.4444 161.401 91.7762Z" fill="#FFFFFF" transform="matrix(6.12323e-17 1 -1.00106 6.12971e-17 1353 1908.62)"></path><path d="M150.814 93.1668C145.25 94.1816 139.746 95.4927 134.322 97.0945 129.223 98.6802 124.564 101.144 119.49 102.949 109.731 106.462 98.5338 106.096 88.4096 104.779 83.4493 103.955 78.434 103.507 73.4063 103.437 68.7956 103.437 64.1848 103.998 59.574 103.754 55.0348 103.248 50.5862 102.124 46.3516 100.412 40.7931 98.6216 34.8838 98.203 29.1283 99.1925 29.0476 99.1925 28.982 99.1269 28.982 99.0461 28.982 98.9654 29.0476 98.8997 29.1283 98.8997 33.3854 98.1069 37.7522 98.1069 42.0092 98.8997 47.1811 99.8268 51.7675 102.437 57.0125 103.12 61.785 103.534 66.5846 103.534 71.3571 103.12 76.2543 102.983 81.1537 103.293 85.9945 104.047 96.8993 105.609 108.878 106.487 119.416 102.632 124.442 100.851 129.175 98.4362 134.322 96.8993 139.763 95.3663 145.285 94.1365 150.862 93.2156 150.862 93.2156 150.862 93.2156 150.862 93.2156Z" fill="#FFFFFF" transform="matrix(6.12323e-17 1 -1.00106 6.12971e-17 1353 1908.62)"></path><path d="M143.08 93.1668C134.469 95.6063 126.003 93.7279 117.123 93.7523 111.963 93.8662 106.872 94.9591 102.12 96.9725 98.2494 98.7282 94.138 99.8958 89.9222 100.437 85.0431 100.778 80.3103 99.4852 75.4068 99.9 71.616 100.44 67.7724 100.506 63.9653 100.095 59.6228 99.3389 55.7439 97.2165 51.5479 96.0943 45.1806 94.411 39.8136 96.4846 33.8855 98.5338 33.7391 98.5338 33.6415 98.3874 33.8855 98.3143 37.7571 96.2877 41.9963 95.0599 46.3516 94.7037 50.3284 94.9838 54.2256 95.9581 57.8664 97.5824 63.0697 99.2454 68.5782 99.7287 73.9918 98.9973 78.3284 98.7409 82.6794 98.8634 86.9947 99.3633 96.4846 100.12 105.023 93.7523 114.464 93.24 123.905 92.7277 133.615 95.46 143.056 93.24 143.056 93.24 143.056 93.24 143.056 93.24Z" fill="#FFFFFF" transform="matrix(6.12323e-17 1 -1.00106 6.12971e-17 1353 1908.62)"></path><path d="M118.026 91.5079C111.089 90.5735 104.035 91.0549 97.2896 92.9228 90.8424 94.9701 84.1616 96.1913 77.4072 96.5578 77.0169 96.5578 77.0657 95.9723 77.4072 95.9479 91.0688 95.338 104.242 87.9949 118.026 91.2639 118.148 91.2639 118.026 91.5323 118.026 91.5079Z" fill="#FFFFFF" transform="matrix(6.12323e-17 1 -1.00106 6.12971e-17 1353 1908.62)"></path><path d="M1.58571 29.6163 1.85407 29.6163 51.8894 38.1791C56.6407 38.8424 61.3203 39.9451 65.8681 41.4725 70.3379 43.1653 74.4688 45.6439 78.0659 48.7912 81.6765 52.1151 85.0435 55.6942 88.1413 59.5009 94.0694 66.3804 100.193 73.4795 107.487 76.1631 108.316 76.4663 108.742 77.3836 108.438 78.2123 108.135 79.041 107.218 79.4669 106.389 79.1637 103.706 78.1879 101.144 77.3828 98.5826 76.6022 96.0211 75.8215 93.362 74.9433 90.6296 73.9675 86.9557 72.5215 83.1478 71.4427 79.2613 70.7472 76.7617 70.422 74.2436 70.2591 71.7231 70.2593 70.2593 70.2593 68.82 70.2593 67.3562 70.0885 62.0073 69.6863 56.6976 68.8707 51.4747 67.649 40.5455 65.2094 29.2503 62.2332 22.2 53.6459 20.5162 51.5303 18.9991 49.2874 17.6624 46.9371 16.0727 43.9684 14.0685 41.2412 11.7099 38.8378 8.50845 36.1857 4.87846 34.0985 0.975824 32.6657 0.190261 32.3988-0.241651 31.5564 4.50767e-07 30.7628 0.201614 30.0612 0.856224 29.588 1.58571 29.6163ZM95.8259 72.3085C92.2437 68.9137 88.871 65.3048 85.7261 61.5013 82.7335 57.8093 79.4718 54.3439 75.9679 51.1332 72.6313 48.2369 68.7958 45.9718 64.6483 44.4488 60.3171 43.0182 55.8679 41.9734 51.3527 41.3261L11.5391 34.5198C12.3108 35.0728 13.0518 35.6673 13.7591 36.3006 16.3393 38.9105 18.5327 41.8763 20.2727 45.1075 21.5311 47.307 22.9499 49.4106 24.5176 51.4015 31.0556 59.2081 41.7409 62.0868 52.1578 64.3312 57.2174 65.5451 62.3644 66.3609 67.5514 66.7708 68.9664 66.7708 70.3813 66.8927 71.7962 66.9171 74.4549 66.9315 77.1106 67.1025 79.7492 67.4294 83.8342 68.1818 87.8373 69.3255 91.703 70.8448 93.0936 71.4059 94.4598 71.8694 95.8259 72.3085Z" fill="#FFFFFF" transform="matrix(6.12323e-17 1 -1.00106 6.12971e-17 1353 1908.62)"></path><path d="M5.17187 31.7143C13.5798 34.1492 21.4571 38.1376 28.3965 43.473 36.1787 49.6938 46.5468 52.3773 55.8659 55.4268 64.2336 58.1591 72.9428 60.3059 81.1398 63.1602 88.3121 65.7217 95.7771 69.1615 100.412 75.358 100.544 75.5283 100.513 75.7735 100.343 75.9057 100.197 76.0186 99.9919 76.0142 99.8512 75.8947 86.8239 63.9897 69.0639 61.5501 52.8653 56.1099 44.8391 53.3776 36.1787 50.7916 29.5675 45.2782 26.2187 42.2019 22.5366 39.5099 18.5894 37.2521 14.2481 35.1031 9.76512 33.2529 5.17187 31.7143Z" fill="#FFFFFF" transform="matrix(6.12323e-17 1 -1.00106 6.12971e-17 1353 1908.62)"></path><path d="M7.44066 33.1536C15.5027 34.3658 23.3692 36.638 30.836 39.9112 34.3002 41.5945 37.5204 43.7901 40.9358 45.571 44.794 47.5014 48.83 49.0537 52.9872 50.2061 66.8195 54.2802 82.945 56.1099 92.4349 68.1613 92.4844 68.2572 92.4469 68.3748 92.351 68.4243 92.2837 68.4589 92.2022 68.4516 92.1422 68.4053 81.2129 56.6222 64.8679 55.1584 50.4257 50.3769 43.3754 48.0593 37.6912 43.9853 31.202 40.6187 23.6492 37.1152 15.6558 34.653 7.44066 33.3 7.44066 33.3 7.44066 33.3 7.44066 33.3Z" fill="#FFFFFF" transform="matrix(6.12323e-17 1 -1.00106 6.12971e-17 1353 1908.62)"></path><path d="M20.907 35.5932C32.6996 38.9029 44.7179 41.3491 56.8661 42.9119 67.0391 44.0828 76.1631 49.8646 83.7013 56.549 83.8477 56.6954 83.7013 56.9149 83.4817 56.8173 78.9198 53.9143 74.4798 50.7916 69.7714 48.1325 64.3917 45.3839 58.5219 43.7257 52.4993 43.2534 41.7955 41.4979 31.2359 38.9537 20.907 35.642 20.907 35.642 20.907 35.642 20.907 35.642Z" fill="#FFFFFF" transform="matrix(6.12323e-17 1 -1.00106 6.12971e-17 1353 1908.62)"></path><path d="M4.63516 32.3974C11.2743 34.5925 17.2895 38.3489 22.1756 43.351 28.1281 49.3523 32.8609 55.5488 41.1798 58.3299 47.5714 60.4523 54.329 60.9646 60.6962 62.7211 66.4048 64.2824 71.845 67.7222 77.7732 68.5028 77.8876 68.5426 77.9483 68.6677 77.9083 68.7824 77.8864 68.8456 77.8366 68.8956 77.7732 68.9176 72.4305 69.1859 67.3074 65.9657 62.3551 64.4288 55.622 62.3064 48.4984 61.8184 41.7409 59.7448 35.3526 57.608 29.7299 53.6474 25.5666 48.3521 19.5165 41.3017 13.5396 35.6908 4.63516 32.4217Z" fill="#FFFFFF" transform="matrix(6.12323e-17 1 -1.00106 6.12971e-17 1353 1908.62)"></path><path d="M79.0661 0C79.3379 0.00376905 79.6053 0.070577 79.8468 0.195165 91.4835 6.73318 104.682 14.1494 113.61 25.5666 115.806 28.3721 117.733 31.4215 119.587 34.349 121.877 38.1701 124.472 41.8006 127.345 45.205 128.662 46.6688 130.151 48.0837 131.565 49.4499 134.794 52.2573 137.568 55.5493 139.787 59.2081 141.044 61.687 142.05 64.2861 142.787 66.9659 143.423 69.2232 144.239 71.4259 145.227 73.5527 149.033 81.0666 156.815 85.3846 165.89 90.1173 166.669 90.5172 166.977 91.4728 166.577 92.2519 166.243 92.9043 165.505 93.2422 164.792 93.0692L161.645 92.3617C150.643 89.9222 141.958 87.9461 132.834 80.3347 130.858 78.6758 129.004 76.8461 127.199 75.0896 125.142 73.0158 122.976 71.0532 120.709 69.2103 118.415 67.4589 116.029 65.8303 113.562 64.3312 111.415 63.0138 109.195 61.6233 107.121 60.0864 98.1388 53.3985 91.6477 43.9023 88.678 33.1048 88.0193 30.6653 87.5314 28.2257 87.0679 25.7861 86.6044 23.3466 86.214 21.5169 85.6529 19.5165 84.1026 13.3867 81.431 7.59684 77.7732 2.43956 77.3277 1.83892 77.3792 1.0048 77.8951 0.463516 78.1976 0.14332 78.6265-0.0264151 79.0661-5.81637e-09ZM154.497 87.4094C149.397 84.3888 145.188 80.0705 142.3 74.8945 141.229 72.6208 140.348 70.2627 139.665 67.8442 138.998 65.3673 138.083 62.9643 136.932 60.6719 134.865 57.3253 132.289 54.3212 129.297 51.7675 127.833 50.3525 126.296 48.8888 124.905 47.3275 121.891 43.813 119.189 40.0417 116.831 36.0567 115.001 33.178 113.122 30.2261 111.024 27.5426 103.828 18.3455 93.5571 11.7587 83.7013 6.0745 85.8381 10.0373 87.4768 14.249 88.5804 18.6138 89.1415 20.8094 89.5806 23.0782 90.0198 25.2494 90.4589 27.4207 90.9224 30.1286 91.5567 32.2998 94.3414 42.4049 100.42 51.2913 108.829 57.5492 110.805 59.013 112.952 60.3547 115.05 61.6721 117.585 63.2036 120.029 64.8816 122.368 66.6976 124.786 68.6126 127.099 70.6567 129.297 72.8209 131.053 74.5285 132.883 76.3094 134.761 77.8707 140.494 82.5657 147.257 85.8347 154.497 87.4094Z" fill="#FFFFFF" transform="matrix(6.12323e-17 1 -1.00106 6.12971e-17 1353 1908.62)"></path><path d="M79.7248 2.43956C83.7745 6.26967 87.7754 10.1486 91.9226 14.0031 95.579 17.1194 98.8546 20.6569 101.681 24.542 107.511 33.5927 107.853 44.8391 115.635 52.8653 122.783 60.1839 132.102 65.0631 138.835 72.8697 142.251 76.8705 145.056 81.3593 149.35 84.5307 153.653 87.205 158.155 89.5455 162.816 91.5323 163.231 91.7518 162.816 92.3373 162.475 92.2398 157.875 91.039 153.506 89.0854 149.545 86.458 145.579 83.4637 142.049 79.9334 139.055 75.9679 132.127 67.8442 123.173 62.5503 115.538 55.2804 111.937 51.9002 109.179 47.7224 107.487 43.0826 105.706 38.2035 104.56 33.0804 102.413 28.4453 99.8463 23.558 96.4448 19.1574 92.3617 15.4424 88.0681 11.0268 83.8477 6.73318 79.6516 2.43956L79.6516 2.43956Z" fill="#FFFFFF" transform="matrix(6.12323e-17 1 -1.00106 6.12971e-17 1353 1908.62)"></path><path d="M81.7253 3.78132C88.3972 8.34451 94.6071 13.5493 100.266 19.3213 105.852 25.0055 112.269 31.5191 115.806 38.8378 117.88 43.107 118.538 47.4006 121.88 51.0356 124.613 54.0118 127.784 56.5734 130.663 59.4033 136.66 64.9425 141.938 71.2125 146.374 78.0659 146.569 78.3587 146.081 78.7002 145.886 78.4074 141.196 71.7692 135.922 65.5641 130.126 59.8668 124.735 54.6461 119.075 50.6697 116.635 43.3022 113.879 34.9589 107.487 27.9818 101.559 21.5901 95.4453 15.1309 88.821 9.17528 81.7496 3.78132 81.7496 3.78132 81.7496 3.78132 81.7496 3.78132Z" fill="#FFFFFF" transform="matrix(6.12323e-17 1 -1.00106 6.12971e-17 1353 1908.62)"></path><path d="M80.5055 2.29319C85.3846 8.34329 89.8246 12.6369 93.6791 19.3701 97.2401 26.012 99.9219 33.0895 101.656 40.4235 102.604 44.5698 104.632 48.3913 107.536 51.4991 110.377 54.2265 113.383 56.7766 116.538 59.1349 122.13 63.8913 126.989 69.4487 130.956 75.6264 130.956 75.7727 130.809 75.9435 130.687 75.7971 125.076 69.6494 120.27 63.3554 113.61 58.1347 108.731 54.3046 103.998 50.4501 101.803 44.4976 100.534 41.0334 99.9488 37.3497 98.851 33.8123 97.5912 29.6092 95.9584 25.5271 93.9718 21.6145 90.0198 14.0031 85.2138 9.36791 80.5055 2.43956 80.5055 2.43956 80.5055 2.43956 80.5055 2.43956Z" fill="#FFFFFF" transform="matrix(6.12323e-17 1 -1.00106 6.12971e-17 1353 1908.62)"></path><path d="M114.659 9.27033C115.092 9.26969 115.506 9.44595 115.806 9.75824 121.514 15.8083 129.297 18.9066 137.445 22.1756 143.329 24.3046 148.978 27.0352 154.302 30.3237 158.594 33.2185 162.385 36.7949 165.524 40.9114 168.613 45.1438 171.362 49.6141 173.745 54.2802 176.807 60.8011 180.929 66.7695 185.943 71.9426 191.213 76.8217 194.53 79.6028 199.483 80.2859 200.166 80.2859 200.873 80.2859 201.63 80.4079 201.758 80.3823 201.891 80.3823 202.02 80.4079 203.228 80.3954 204.434 80.3059 205.63 80.1395 206.499 80.0244 207.296 80.6348 207.411 81.503 207.411 81.5037 207.411 81.5047 207.411 81.5057 207.538 82.3586 206.95 83.1529 206.097 83.2797 206.08 83.2824 206.063 83.2846 206.045 83.2866 203.682 83.613 201.285 83.613 198.922 83.2866 196.069 82.9392 193.258 82.31 190.53 81.4081 188.667 80.8031 186.769 80.3142 184.845 79.9444L182.406 79.5296C179.561 79.1762 176.764 78.5136 174.063 77.5536 170.047 75.7483 166.368 73.2736 163.182 70.2349 161.792 69.0395 160.377 67.7954 158.937 66.7464 157.108 65.3802 155.156 64.136 153.229 62.9162 151.301 61.6965 149.545 60.4767 147.74 59.2569 137.128 51.4503 130.443 39.8868 123.954 28.7136 120.709 22.8342 117.151 17.1336 113.293 11.6367 112.977 11.0085 113.106 10.248 113.61 9.75824 113.887 9.47125 114.261 9.29738 114.659 9.27033ZM187.212 77.3096C186.138 76.3826 185.041 75.3824 183.845 74.309 178.547 68.8951 174.185 62.6376 170.94 55.7927 168.621 51.2793 165.963 46.9486 162.987 42.8387 160.067 39.0249 156.53 35.7266 152.521 33.0804 147.39 29.9175 141.945 27.2931 136.274 25.2494 131.216 23.3678 126.32 21.0751 121.636 18.3943 123.442 21.3461 125.174 24.3468 126.881 27.2743 133.493 38.6914 139.738 49.4499 149.813 56.8661 151.497 58.1103 153.351 59.3057 155.107 60.4035 156.864 61.5013 159.108 62.8431 161.011 64.38 162.523 65.5022 163.987 66.8195 165.427 67.9905 168.352 70.8102 171.723 73.1265 175.404 74.8457 177.897 75.7042 180.473 76.3011 183.089 76.6266L185.529 77.0413C186.065 77.0413 186.651 77.1877 187.212 77.3096Z" fill="#FFFFFF" transform="matrix(6.12323e-17 1 -1.00106 6.12971e-17 1353 1908.62)"></path><path d="M117.27 14.6374C132.297 28.8193 147.195 43.1478 161.962 57.6224 172.477 67.8442 184.772 79.2613 199.532 82.7011 199.8 82.7011 199.702 83.189 199.532 83.1646 192.872 82.4815 186.651 78.7002 181.186 75.0653 174.96 70.8482 169.152 66.0447 163.841 60.7206 148.13 45.327 132.566 30.0554 117.245 14.6374 117.245 14.6374 117.245 14.6374 117.245 14.6374Z" fill="#FFFFFF" transform="matrix(6.12323e-17 1 -1.00106 6.12971e-17 1353 1908.62)"></path><path d="M121.978 16.4426C128.988 22.1072 136.605 26.9757 144.69 30.958 148.456 32.5925 151.932 34.825 154.985 37.5692 157.716 40.6733 160.097 44.0685 162.084 47.6934 170.062 60.1839 181.845 70.8936 193.603 79.7492 193.703 79.8592 193.694 80.0288 193.584 80.1283 193.517 80.1891 193.423 80.2117 193.335 80.1883 180.979 72.5079 170.374 62.3183 162.206 50.2793 159.767 46.8395 158.035 42.9606 155.376 39.8624 152.192 36.4409 148.372 33.6732 144.129 31.7143 136.197 27.4877 128.767 22.3812 121.978 16.4914 121.978 16.4914 121.978 16.4914 121.978 16.4914Z" fill="#FFFFFF" transform="matrix(6.12323e-17 1 -1.00106 6.12971e-17 1353 1908.62)"></path><path d="M122.563 19.8092C131.004 31.7143 139.299 43.107 149.862 53.158 155.168 58.2277 160.799 62.946 166.719 67.2831 172.526 71.5035 178.649 76.0655 185.943 77.0413 186.098 77.0874 186.186 77.2506 186.14 77.4055 186.112 77.5002 186.038 77.5741 185.943 77.6024 179.6 77.2609 174.355 73.9187 169.257 70.4057 162.956 66.0916 156.987 61.313 151.399 56.1099 140.26 45.3082 130.56 33.1158 122.539 19.8336 122.539 19.8336 122.539 19.8336 122.539 19.8336Z" fill="#FFFFFF" transform="matrix(6.12323e-17 1 -1.00106 6.12971e-17 1353 1908.62)"></path></g></svg>